<svg xmlns="http://www.w3.org/2000/svg" viewBox="0 0 180 180">
<rect x="38" y="22" width="104" height="104" rx="6" fill="#fff" stroke="#176da3" stroke-width="2.4"/>
<rect x="42" y="26" width="96" height="96" rx="3" fill="none" stroke="#176da3" stroke-width=".8"/>
<g fill="#176da3"><rect x="48" y="34" width="8" height="30" rx="3"/><rect x="67" y="34" width="8" height="30" rx="3"/><rect x="86" y="34" width="8" height="30" rx="3"/><rect x="105" y="34" width="8" height="30" rx="3"/><rect x="124" y="34" width="8" height="30" rx="3"/><rect x="48" y="83" width="8" height="30" rx="3"/><rect x="67" y="83" width="8" height="30" rx="3"/><rect x="86" y="83" width="8" height="30" rx="3"/><rect x="105" y="83" width="8" height="30" rx="3"/><rect x="124" y="83" width="8" height="30" rx="3"/></g><path d="M76 74h28" stroke="#176da3" stroke-width="1.5"/>
<path d="M38 131V151M142 131V151" fill="none" stroke="#759ab0" stroke-width="1"/>
<path d="M43 146H137" fill="none" stroke="#176da3" stroke-width="1.3"/>
<path d="M38 146l6-3v6zM142 146l-6-3v6z" fill="#176da3"/>
</svg>
